<svg xmlns="http://www.w3.org/2000/svg" xmlns:xlink="http://www.w3.org/1999/xlink" width="5650" height="2921" viewBox="0 0 5650 2921">
  <defs>
    <linearGradient id="linear-gradient" x1="0.5" y1="1" x2="0.5" gradientUnits="objectBoundingBox">
      <stop offset="0" stop-color="gray" stop-opacity="0.251"/>
      <stop offset="0.54" stop-color="gray" stop-opacity="0.122"/>
      <stop offset="1" stop-color="gray" stop-opacity="0.102"/>
    </linearGradient>
  </defs>
  <g id="Group_119" data-name="Group 119" transform="translate(-51 -51)">
    <g id="Group_118" data-name="Group 118">
      <rect id="Rectangle_5" data-name="Rectangle 5" width="5650" height="2921" transform="translate(51 51)" fill="rgba(255,255,255,0)"/>
    </g>
    <g id="hero" transform="translate(2651.997 433.002)">
      <path id="Path_3" data-name="Path 3" d="M1759.851,416.778c-182.09-6.33-355.514-65.1-521.145-129.421S909.076,151.774,731.347,117.7C617.035,95.785,486.32,92.69,394.206,153.968,305.58,213.052,276.939,314.76,261.521,409.209c-11.564,71.1-18.4,145.88,13.364,212.419,22.03,46.2,61.166,85.024,88.231,129.28,94.14,153.955,27.6,343.81-74.445,494.135-47.83,70.506-103.368,137.861-140.309,212.87s-54.019,161.073-21.72,237.656c32.046,75.965,108.376,132.91,191.037,173,167.938,81.423,365.755,104.747,558.817,117.942,427.146,29.232,856.6,16.572,1284.869,3.911,158.512-4.7,317.7-9.453,473.624-33.959,86.6-13.617,176.013-35.225,238.866-87.218,79.791-66.2,99.57-178.32,46.114-261.318-89.695-139.24-337.62-173.846-400.389-323.271-34.522-82.239.928-173.874,51.065-250.148C2678.233,870.848,2858.551,727.3,2868.06,540.234c6.527-128.464-80.156-257.126-214.192-317.926-140.506-63.726-335.313-55.707-438.906,49.771C2108.162,380.568,1920.614,422.348,1759.851,416.778Z" transform="translate(-28.878 -103.35)" fill="#30d780" opacity="0.1"/>
      <path id="Path_4" data-name="Path 4" d="M1291.858,1607.155c-2.813-10.185-5.627-20.482-11.254-29.345a102.779,102.779,0,0,0-18.428-20.173c-20.4-18.513-45.438-37.307-72.476-32.637a96.77,96.77,0,0,0-24.027,8.778c-3.939,1.829-7.906,3.657-11.957,5.2a59.564,59.564,0,0,1-36.069,3.151c-6.19-1.66-11.957-4.642-18.063-6.5a57.259,57.259,0,0,0-8.862-1.913,150.936,150.936,0,0,0,17.134-9.031c30.33-18.569,54.526-52.134,51.15-88.035-1.154-12.07-5.289-23.634-9.4-35.028l-10.8-29.879c-4.671-12.942-9.51-26.137-18.035-36.885-9.481-11.986-22.986-20.117-36.941-26.166-29.964-13.026-62.713-17.612-95.04-22.058l-2.251-.31V937.091a22.508,22.508,0,0,0-22.508-22.508H921.545q-2.814-17.219-5.627-34.381c-5.346-32.665-10.888-65.92-25.94-95.321-9.847-19.244-25.519-37.617-46.648-41.387a45.246,45.246,0,0,1-12.126-2.813c-6.19-3.039-9.566-9.791-14.321-14.771-12.267-12.858-32.215-13.055-48.646-19.694-14.518-5.768-26.391-16.628-39.614-24.984s-29.654-14.293-44.285-8.863a29.679,29.679,0,0,1-.309,3.179l-9.4-4.333c-10.129-4.7-20.454-9.51-28.585-17.219-10.438-9.847-16.009-22.9-20.342-36.773-.45-1.435-.872-2.813-1.322-4.361a130.63,130.63,0,0,0,35-66.821l2.279,7.4a49.1,49.1,0,0,0,1.8,4.9,19.3,19.3,0,0,0,5.627,7.962,10,10,0,0,0,2.363,1.379,9.849,9.849,0,0,0,2.42.619,9,9,0,0,0,3.489-.253,13.308,13.308,0,0,0,8.44-7.822,16.882,16.882,0,0,0,.985-3.432,17.715,17.715,0,0,0,.2-2.138v-2.926a5.491,5.491,0,0,0-.141-1.407v-.732a8.187,8.187,0,0,0-.281-1.66c-.113-.535,0-.309,0-.45-.141-.7-.309-1.435-.45-2.138V544.8c0-.169-.253-1.154-.394-1.744s-.2-.76-.281-1.154v-.169h0c-.281-1.125-.535-2.223-.788-3.348a96.724,96.724,0,0,1-1.547-29.71,318.126,318.126,0,0,1,8.047-43.187l.591-2.56c.225-.985.45-1.97.647-2.982.45-2.026.9-4.051,1.322-6.105h0l1.013-5.177.76-4.614v-.591a133.4,133.4,0,0,0,.985-31.6h0c-1.294-14.715-5.852-28.641-15.84-39.727-7.062-7.85-16.375-13.645-22.93-21.889-6.133-7.709-9.594-17.219-15.953-24.787-17.556-20.961-62.629-37.11-90.285-39.924-31.68-3.207-82.858,4.9-108.4,23.605-9.453,6.893-15.924,16.881-22.508,26.334-12.1,17.584-25.828,35.141-45.213,45.016-7.315,3.714-15.7,6.527-20.567,13a35.141,35.141,0,0,0-5.486,14.574,288.978,288.978,0,0,0-5.8,55.651h0v7.034a51.29,51.29,0,0,0,4.389,20.342c.45.957.957,1.885,1.491,2.814l.338.591a111.912,111.912,0,0,1,9,15.334,20.308,20.308,0,0,1,1.379,4.671,34.436,34.436,0,0,1-.788,12.323h0a10.835,10.835,0,0,1-.366,1.857l-.253,1.21a2.373,2.373,0,0,1-.225,1.238c-.225,1.21-.422,2.42-.591,3.6h0a25.322,25.322,0,0,0,.619,9.735,12.8,12.8,0,0,0,6.246,8.44,18.289,18.289,0,0,0,5.064,1.576c1.772.309,3.573.506,5.317.9a26.254,26.254,0,0,1,6.443,2.392,25.943,25.943,0,0,1,5.43,3.489,30.958,30.958,0,0,1,2.335,2.363,39.388,39.388,0,0,1,4,5.458q.9,1.491,1.688,3.038a69.418,69.418,0,0,1,4.811,12.717c.731,2.616,1.35,5.261,1.885,7.906.253,1.182.478,2.363.675,3.517s.394,2.335.563,3.489h0a8.185,8.185,0,0,0,2.251-.45c4.136-1.491,6.443-6.3,7.737-10.972.225-.788.422-1.547.591-2.307.647-2.814,1.322-5.908,1.97-8.862a130.463,130.463,0,0,0,51.346,56.552c.788,2.335,1.547,4.642,2.223,7.005,3.686,12.745,5.458,26.081-.928,37.223-4.558,7.906-12.211,12.773-20.764,16.149a13.729,13.729,0,0,0-4.642-3.939c-7.4-3.714-16.29.788-22.508,6.33-11.254,10.185-20.426,24.787-35.225,28.135-5.346,1.238-11.254.985-15.7,4.248A36.571,36.571,0,0,0,362,738.43a33.537,33.537,0,0,1-28.782,14.349c-5.149-.253-11.254-1.435-14.771,2.335-2.617,2.813-2.814,7.259-5.627,9.932-3.77,3.714-9.96,1.913-15.221,1.688-10.016-.422-19.329,6.049-25.04,14.349s-8.44,18.232-11.254,28.135v.169a20.133,20.133,0,0,0-2.054,1.716,29.682,29.682,0,0,0-6.218,10.072,480.74,480.74,0,0,0-39.67,163.689,16.88,16.88,0,0,1-1.8,7.934,39.022,39.022,0,0,1-4.136,4.5,15.784,15.784,0,0,0,2.616,22.508,17.722,17.722,0,0,1,3.01-4c-.309,1.294-.591,2.56-.788,3.714a99.851,99.851,0,0,0-.309,24.759q4,58.634,8.075,117.183c.76,11.057,1.519,22.086,2.532,33.115q2.954,32.018,8.44,63.782a27.526,27.526,0,0,0,.619,2.813c-22.93,7.287-43.328,20.454-51.909,42.428-2.982,7.6-4.333,15.868-7.99,23.155-4.023,7.99-10.635,14.377-15.024,22.2-7.568,13.449-7.906,29.936-5.149,45.016,5.318,29.4,21.214,55.679,42.2,77.062h-2.813a44.005,44.005,0,0,0-19.216,6.893c-44.4,25.94-69.775,81.591-60.518,132.4,1.829,9.932,5.008,20,11.648,27.572a43.639,43.639,0,0,0,20.482,12.548,71.192,71.192,0,0,0,15.109,2.813c34.606,2.813,68.115-13.224,102.805-14.574a275.723,275.723,0,0,1,34.409,1.6q25.068,2.083,50.221,2.645c27.263.647,42.6-6.612,59.984-26.982a73.43,73.43,0,0,0,10.607-16.712c14.8-.844,31.145-2.138,42.962-3.095l.169,1.632c.647,5.627,1.632,12.1,6.133,15.643a21.411,21.411,0,0,0,8.44,3.46c28.416,6.978,57.17,14.068,86.431,14.068a364.979,364.979,0,0,0,41.049-3.151l51.4-5.937a256.051,256.051,0,0,1,44.172,9.623c14.855,5.036,28.726,12.52,43.243,18.456,33.762,13.674,70.056,18.569,106.013,23.352,6.133.816,13.167,1.378,17.7-2.813,5.852-5.627,3.911-15.024,2.251-22.9-.675-3.236-1.182-6.471-1.576-9.735a493.055,493.055,0,0,1,71.013,24.646l4.023,1.772c1.182,6.133,6.837,11.029,12.267,17.641a44.992,44.992,0,0,0,6.218,7.709,20.737,20.737,0,0,0,8.919,3.207,415.888,415.888,0,0,0,115.157,5.205,117.8,117.8,0,0,1,23.746-.816,102.945,102.945,0,0,1,17.162,3.854l32.552,9.341c24,6.865,48.561,13.814,73.461,12.267a93.958,93.958,0,0,0,15-2.167c19.694-4.558,38.039-15.559,47.492-33.255C1305.222,1663.2,1299.061,1633.6,1291.858,1607.155Z" transform="translate(-29.362 225.816)" fill="url(#linear-gradient)"/>
      <path id="Path_5" data-name="Path 5" d="M211.164,797.605c-5.936-13.5-11.563-29.035-5.627-42.54a36.153,36.153,0,0,1,18.71-17.585,90.04,90.04,0,0,1,25.321-6.246,353.4,353.4,0,0,1,82.323-1.126c2,15.812-2.223,31.849-5.852,47.126-3.292,14.068-5.177,16.149-19.694,16.881C296.948,794.623,213.387,802.585,211.164,797.605Z" transform="translate(140.574 1029.88)" fill="#fbbebe"/>
      <ellipse id="Ellipse_4" data-name="Ellipse 4" cx="402.331" cy="112.54" rx="402.331" ry="112.54" transform="translate(199.95 1511.303)" fill="#464353"/>
      <ellipse id="Ellipse_5" data-name="Ellipse 5" cx="402.331" cy="112.54" rx="402.331" ry="112.54" transform="translate(199.95 1511.303)" opacity="0.1"/>
      <path id="Path_6" data-name="Path 6" d="M496.759,617.06a125.172,125.172,0,0,1-64.542,58.633,162,162,0,0,1-51.234,9.735c-19.1.872-38.6-.366-56.551-6.893-24.084-8.722-44.088-26.559-59.084-47.351s-25.321-44.538-34.3-68.481c-4.727-12.464-9.228-25.743-7.006-38.911,14.49-3.292,30.358-8.131,37.842-20.989,6.387-11.029,4.614-24.252.928-36.857-1.041-3.573-2.251-7.118-3.461-10.522-2.813-8.159-12.52-23.662-5.627-30.639,4.3-4.417,22.339-6.668,28.557-9.538,19.16-8.834,36.829-21.608,57.874-25.8,18.2-3.629,37-.225,55.173,3.545a18.147,18.147,0,0,1,6.809,2.448,16.374,16.374,0,0,1,5.064,7.6c5.177,12.6,8.216,26.531,12.38,39.671,4.333,13.758,9.9,26.672,20.342,36.435,8.131,7.625,18.485,12.408,28.613,17.05l24.928,11.423a32.776,32.776,0,0,1,11.789,7.625,29.853,29.853,0,0,1,5.627,15.305A142.982,142.982,0,0,1,496.76,617.06Z" transform="translate(177.66 412.685)" fill="#fbbebe"/>
      <path id="Path_7" data-name="Path 7" d="M401.508,442.707a129.421,129.421,0,0,1-156.628,23.24c-1.041-3.573-2.251-7.118-3.461-10.523-2.813-8.159-12.52-23.662-5.627-30.639,4.3-4.417,22.339-6.668,28.557-9.538,19.16-8.834,36.829-21.608,57.874-25.8,18.2-3.629,37-.225,55.173,3.545a18.147,18.147,0,0,1,6.809,2.448,16.376,16.376,0,0,1,5.064,7.6C394.306,415.641,397.344,429.568,401.508,442.707Z" transform="translate(195.624 412.685)" opacity="0.1"/>
      <circle id="Ellipse_6" data-name="Ellipse 6" cx="129.421" cy="129.421" r="129.421" transform="translate(374.387 630.678)" fill="#fbbebe"/>
      <path id="Path_8" data-name="Path 8" d="M829.075,698.259,818.44,633.83c-5.374-32.327-10.916-65.273-25.941-94.393-9.875-19.076-25.547-37.251-46.676-41.021a45.158,45.158,0,0,1-12.154-2.813c-6.19-2.982-9.566-9.678-14.321-14.63-12.267-12.717-32.243-12.914-48.674-19.385-14.518-5.627-26.391-16.459-39.614-24.731s-29.682-14.067-44.313-8.778c-2.363,25.181-4.867,50.924-15.559,73.854A110.514,110.514,0,0,1,404.462,543.46c-25.068-18.879-41.133-48-48.617-78.469-1.829-7.428-3.911-15.953-10.748-19.357-7.4-3.714-16.29.788-22.508,6.246-11.254,10.1-20.454,24.562-35.253,27.966-5.346,1.238-11.254.985-15.7,4.22a35.728,35.728,0,0,0-7.315,9.482,33.762,33.762,0,0,1-28.782,14.236c-5.149-.253-11.254-1.435-14.771,2.307-2.617,2.813-2.814,7.2-5.627,9.819-3.8,3.686-9.96,1.885-15.249,1.688-10.016-.422-19.329,5.993-25.068,14.068s-8.44,18.063-11.254,27.741c30.751,68.481,58.887,137.046,89.638,205.526a17.527,17.527,0,0,1,2.223,8.44,20.568,20.568,0,0,1-3.826,8.441c-15.08,24.224-14.6,54.694-12.942,83.167s3.686,58.549-9.031,84.067c-3.461,7.006-7.962,13.421-11.254,20.426-7.709,15.868-10.494,66.624-5.993,83.674H848.46c-12.126-33.34-7.512-100.245-4.98-135.639,1.773-24.759-2.813-49.49-4.783-74.248C834.393,796.7,837.431,748.733,829.075,698.259Z" transform="translate(69.045 481.867)" fill="#30d780"/>
      <path id="Path_9" data-name="Path 9" d="M146.855,573.679a99.6,99.6,0,0,0-.338,24.562l8.075,116.113c.76,10.945,1.519,21.861,2.532,32.777,1.941,21.186,4.839,42.2,8.44,63.191A11.254,11.254,0,0,0,177.1,821.267c35.591,7.54,72.363,7.23,108.686,5.177,55.426-3.095,110.768-10.157,166.278-8.947,14.292.309,30.948,0,39.614-11.254S495.307,776.786,484,767.7s-26.672-11.254-41.19-11.254c-19.216-.2-38.432,2.532-57.592,1.407-17.584-1.041-34.775-5.289-51.825-9.538l-47.83-11.9c1.829-14.49,7.343-28.135,12.576-41.893,9.4-24.393,18.175-49.6,18.344-75.739s-9.678-53.625-31.089-68.593c-17.613-12.295-40.289-14.574-61.756-14.067-15.615.45-42.6-3.292-56.861,2.813C155.492,543.884,148.965,562.622,146.855,573.679Z" transform="translate(37.03 680.161)" fill="#fbbebe"/>
      <path id="Path_10" data-name="Path 10" d="M738.612,644.851c9.369-3.573,19.695-2.279,29.739-.929,32.327,4.417,65.133,8.947,95.1,21.861,14.067,6.021,27.46,14.068,36.969,25.912,8.441,10.663,13.364,23.718,18.035,36.576l10.8,29.6c4.108,11.254,8.272,22.733,9.425,34.69,3.376,35.422-20.848,68.818-51.318,87.218S821.02,904.734,786.076,911.6s-70.028,14.461-104.831,22.508a422,422,0,0,1-49.321,9.707c-37.251,4.22-76.19-2-111.584,10.326-14.068,4.924-27.882,12.239-42.484,15.643a264.316,264.316,0,0,1-29.373,4.473l-66.989,7.653a365.444,365.444,0,0,1-41.077,3.151c-29.26,0-58.043-6.921-86.459-13.842a21.863,21.863,0,0,1-8.441-3.4c-4.5-3.545-5.486-9.819-6.133-15.5q-4.3-37.729-7.54-75.543c-.675-8.187-1.182-17.05,3.292-23.943,5.627-8.441,16.6-11.085,26.616-12.717a694.591,694.591,0,0,1,128.521-8.919c16.346-16.346,43.3-16.431,64.711-25.322A192.468,192.468,0,0,0,477.8,793.46a298.229,298.229,0,0,1,125.285-39.586,116.619,116.619,0,0,0,25.631-3.657c16.571-5.149,31.68-19.16,48.7-15.728,2.11-5.824,3.573-13.617,8.44-17.613,2.42-2.054,5.4-3.432,7.625-5.627,4.7-4.755,5.121-12.239,4.417-18.879s-2.279-13.449-.563-19.92a27.537,27.537,0,0,1,3.123-6.949C708.9,650.928,721.647,643.444,738.612,644.851Z" transform="translate(192.061 874.471)" fill="#464353"/>
      <path id="Path_11" data-name="Path 11" d="M738.612,644.851c9.369-3.573,19.695-2.279,29.739-.929,32.327,4.417,65.133,8.947,95.1,21.861,14.067,6.021,27.46,14.068,36.969,25.912,8.441,10.663,13.364,23.718,18.035,36.576l10.8,29.6c4.108,11.254,8.272,22.733,9.425,34.69,3.376,35.422-20.848,68.818-51.318,87.218S821.02,904.734,786.076,911.6s-70.028,14.461-104.831,22.508a422,422,0,0,1-49.321,9.707c-37.251,4.22-76.19-2-111.584,10.326-14.068,4.924-27.882,12.239-42.484,15.643a264.316,264.316,0,0,1-29.373,4.473l-66.989,7.653a365.444,365.444,0,0,1-41.077,3.151c-29.26,0-58.043-6.921-86.459-13.842a21.863,21.863,0,0,1-8.441-3.4c-4.5-3.545-5.486-9.819-6.133-15.5q-4.3-37.729-7.54-75.543c-.675-8.187-1.182-17.05,3.292-23.943,5.627-8.441,16.6-11.085,26.616-12.717a694.591,694.591,0,0,1,128.521-8.919c16.346-16.346,43.3-16.431,64.711-25.322A192.468,192.468,0,0,0,477.8,793.46a298.229,298.229,0,0,1,125.285-39.586,116.619,116.619,0,0,0,25.631-3.657c16.571-5.149,31.68-19.16,48.7-15.728,2.11-5.824,3.573-13.617,8.44-17.613,2.42-2.054,5.4-3.432,7.625-5.627,4.7-4.755,5.121-12.239,4.417-18.879s-2.279-13.449-.563-19.92a27.537,27.537,0,0,1,3.123-6.949C708.9,650.928,721.647,643.444,738.612,644.851Z" transform="translate(192.061 874.471)" opacity="0.05"/>
      <path id="Path_12" data-name="Path 12" d="M406.368,851.613c-17.416,20.173-32.749,27.375-60.012,26.728q-25.153-.591-50.249-2.616a281.97,281.97,0,0,0-34.437-1.6c-34.719,1.35-68.227,17.247-102.862,14.461a72.919,72.919,0,0,1-15.109-2.814,43.974,43.974,0,0,1-20.51-12.436c-6.64-7.512-9.819-17.472-11.648-27.319-9.256-50.474,16.121-105.45,60.547-131.137a44.4,44.4,0,0,1,19.244-6.837,45.606,45.606,0,0,1,19.469,4.276l.422.169a147.234,147.234,0,0,1,48.223,32.187,27.182,27.182,0,0,0,7.371,5.936,25.325,25.325,0,0,0,8.694,1.632l36.969,2.335a87.592,87.592,0,0,1,18.569,2.56,147.579,147.579,0,0,1,19.526,8.44c19.891,8.891,41.949,11.254,63.444,14.686a9.482,9.482,0,0,1,5.627,2.251,8.806,8.806,0,0,1,1.744,3.657,71.773,71.773,0,0,1-15.024,65.442Z" transform="translate(-28.745 993.259)" fill="#3f3d56"/>
      <path id="Path_13" data-name="Path 13" d="M211.223,712.5a221.985,221.985,0,0,0-37,46.254A231.5,231.5,0,0,0,144.009,850.3a169.935,169.935,0,0,0-.31,35.478,43.969,43.969,0,0,1-20.51-12.435c-6.64-7.512-9.819-17.472-11.648-27.319-9.256-50.474,16.121-105.45,60.547-131.137a44.4,44.4,0,0,1,19.244-6.837,45.611,45.611,0,0,1,19.469,4.277Z" transform="translate(-28.745 993.277)" opacity="0.1"/>
      <path id="Path_14" data-name="Path 14" d="M455.914,737.92c20.679-.563,43.891-1.6,59.084,12.323,14.489,13.167,16.4,34.887,17.359,54.441l1.1,22.7c.338,6.921.619,14.068-2.166,20.482-4.952,11.254-18.541,16.684-30.949,16.037s-23.8-6.077-35.141-10.973A494.324,494.324,0,0,0,369.54,822.8q1.6-23.549,5.345-46.873c1.716-10.776,2-28.81,9.2-37.757,7.625-9.453,17.556-4.333,27.91-2.588a224.049,224.049,0,0,0,43.919,2.335Z" transform="translate(442.572 1037.852)" fill="#fbbebe"/>
      <path id="Path_15" data-name="Path 15" d="M354.467,693.483c0,2.813-4.417,0-4.811-3.01-3.095-22.761-21.158-41.527-42.2-50.643s-45.016-9.594-67.805-7.428c-34.465,3.264-73.151,16.459-85.755,48.674-2.982,7.54-4.333,15.7-7.99,22.93-4.051,7.934-10.663,14.265-15.052,21.973-7.568,13.336-7.878,29.682-5.149,44.763,7.343,40.233,34.859,74.642,68.2,98.472s72.307,38.067,111.161,50.9a1927.756,1927.756,0,0,0,315.112,75.261c17.331,2.616,34.831,5.036,51.431,10.607,14.855,4.98,28.754,12.436,43.272,18.288,33.762,13.561,70.084,18.4,106.069,23.155,6.133.788,13.167,1.351,17.7-2.813,5.852-5.43,3.911-14.883,2.251-22.677a121.965,121.965,0,0,1,14.377-86.543c6.021-10.129,13.843-20.51,12.717-32.243-1.35-13.674-14.968-23.352-28.529-25.547s-27.347,1.041-40.965,2.813c-4.7.619-9.819,1.013-13.927-1.379a27.82,27.82,0,0,1-5.458-4.839,61.7,61.7,0,0,0-71.857-10.044c-5.036,2.813-12.661-3.461-17.894-5.824L630.19,831.542C562.216,800.79,493.9,769.9,421.991,750.429a43.73,43.73,0,0,1-16.037-6.668c-3.573-2.813-6.133-6.64-9.425-9.763-7.174-6.78-17.162-9.481-25.772-14.293S352.5,703.134,354.467,693.483Z" transform="translate(-2.475 854.142)" fill="#464353"/>
      <path id="Path_16" data-name="Path 16" d="M757.415,888.105c-9.453,17.528-27.8,28.444-47.492,32.946A94.3,94.3,0,0,1,694.9,923.19c-24.9,1.547-49.49-5.346-73.489-12.154l-32.58-9.172a102.825,102.825,0,0,0-17.162-3.826,117.77,117.77,0,0,0-23.746.816,420.878,420.878,0,0,1-115.353-5.177,20.336,20.336,0,0,1-8.919-3.179,44.3,44.3,0,0,1-6.218-7.625c-8.863-10.663-18.4-16.881-7.906-30.949,6.049-8.159,17.275-12.238,21.973-21.607s1.688-22.677-1.1-32.355c-3.8-13.364-16.29-19.132-20.764-31.4-3.348-9.256,2.279-20,10.748-25.04s18.935-5.43,28.7-4.136,19.329,4.051,29.148,4.811c28.867,2.307,58.38-12.576,86.093-4.192,6.105,1.857,11.873,4.811,18.063,6.443a60.068,60.068,0,0,0,36.1-3.123c4.051-1.519,8.018-3.348,11.957-5.149a96.3,96.3,0,0,1,24.055-8.694C681.535,722.84,706.6,741.55,727,759.81a102.511,102.511,0,0,1,18.428,19.976c5.627,8.778,8.609,18.991,11.254,29.064C764.14,834.874,770.3,864.191,757.415,888.105Z" transform="translate(506.741 1027.217)" fill="#3f3d56"/>
      <path id="Path_17" data-name="Path 17" d="M611.981,888.214c-9.453,17.528-27.8,28.444-47.492,32.946a91.972,91.972,0,0,0,9.988-48.28c-1.688-26.756-13.449-51.965-28.445-74.192A262.763,262.763,0,0,0,514.69,760.51c-8.947-9-19.948-16.15-29.57-24.393a96.3,96.3,0,0,1,24.055-8.694c27.038-4.642,52.106,14.068,72.5,32.327a102.518,102.518,0,0,1,18.428,19.976c5.627,8.778,8.609,18.991,11.254,29.063C618.705,834.983,624.867,864.3,611.981,888.214Z" transform="translate(652.176 1027.108)" opacity="0.1"/>
      <path id="Path_18" data-name="Path 18" d="M198.8,487.178a29.122,29.122,0,0,0-6.246,9.988,472.276,472.276,0,0,0-39.67,162.114,16.207,16.207,0,0,1-1.829,7.85,34.343,34.343,0,0,1-4.136,4.474,15.53,15.53,0,0,0,2.645,22.508c4.642-8.75,15.756-11.592,25.631-12.351,47.295-3.742,93.493,18.26,140.928,16.6-3.348-11.563-8.159-22.677-10.888-34.381-12.07-51.965,18.035-108.545-.422-158.6-3.686-10.016-9.847-19.863-19.554-24.252a52.077,52.077,0,0,0-12.52-3.32c-11.986-2.166-35.844-11.423-47.436-7.709-4.277,1.378-5.965,5.4-9.51,7.821C210.42,481.382,203.274,482.648,198.8,487.178Z" transform="translate(32.211 560.179)" fill="#30d780"/>
      <rect id="Rectangle_6" data-name="Rectangle 6" width="627.411" height="399.517" rx="7.97" transform="translate(330.778 1149.769)" fill="#3f3d56"/>
      <circle id="Ellipse_7" data-name="Ellipse 7" cx="16.881" cy="16.881" r="16.881" transform="translate(626.196 1332.646)" fill="#fff"/>
      <path id="Path_19" data-name="Path 19" d="M292.4,314.256c-9.453,6.837-15.924,16.656-22.508,26.081-12.126,17.416-25.856,34.8-45.241,44.51-7.343,3.686-15.727,6.471-20.595,12.886a34.718,34.718,0,0,0-5.486,14.433,286,286,0,0,0-5.8,55.145c0,9.228.394,18.738,4.473,27.122,3.855,7.878,10.8,14.546,12.239,23.127,1.1,6.7-1.379,13.364-2.251,20.088s.647,14.687,6.865,17.894a41.611,41.611,0,0,0,10.41,2.448c18.71,4.164,24.984,26.109,27.826,44.256,6.359-.366,9.228-7.653,10.551-13.589l19.5-86.684c2.11-9.4,5.627-20.285,15-23.577,6.274-2.166,13.139-.141,19.695.422,25.743,2.11,47.52-17.781,72.7-23.268a92.836,92.836,0,0,1,24.506-1.632c19.863.985,42.962,9.144,47.182,27.685.7,3.01,1.125,6.612,3.939,8.1s5.768.225,8.722,0c12.6-1.266,20.032,12.914,23.662,24.506L511,556.414c1.969,6.387,5.289,13.9,12.211,14.715,6.387.788,11.817-5.261,12.773-11.254s-1.125-12.211-2.5-18.232c-6.218-27.713,3.292-56.073,9.088-83.842s6.837-59.674-12.6-81.057c-7.062-7.737-16.346-13.5-22.93-21.664-6.133-7.653-9.594-17.05-15.953-24.562C473.5,309.783,428.4,293.774,400.744,291.13,369.148,287.7,317.943,295.715,292.4,314.256Z" transform="translate(121.999 235.786)" fill="#3f3d56"/>
      <g id="Group_114" data-name="Group 114" transform="translate(314.797 651.751)" opacity="0.1">
        <path id="Path_20" data-name="Path 20" d="M514.074,458.831c-6.921-.844-10.241-8.44-12.211-14.715q-6.612-21.129-13.223-42.2c-3.629-11.62-11.057-25.8-23.662-24.506-2.954.31-6.133,1.463-8.722,0s-3.236-5.092-3.939-8.1c-4.22-18.569-27.319-26.7-47.182-27.685a94.059,94.059,0,0,0-24.506,1.6c-25.181,5.627-46.957,25.321-72.7,23.268-6.64-.535-13.5-2.56-19.695-.394-9.482,3.264-12.886,14.067-15,23.577l-19.5,86.656c-1.322,5.965-4.192,13.252-10.551,13.589-2.813-18.119-9.116-40.064-27.825-44.228a44.229,44.229,0,0,1-10.41-2.448,12.211,12.211,0,0,1-5.43-6.049c-.506,2.616-1.1,5.233-1.435,7.85-.844,6.7.647,14.686,6.865,17.894a41.611,41.611,0,0,0,10.41,2.448c18.71,4.164,24.984,26.109,27.825,44.256,6.359-.366,9.228-7.653,10.551-13.589l19.5-86.684c2.11-9.4,5.627-20.285,15-23.577,6.274-2.166,13.139-.141,19.695.422,25.744,2.11,47.52-17.781,72.7-23.268a92.84,92.84,0,0,1,24.506-1.632C425,362.3,448.1,370.459,452.317,389c.7,3.01,1.125,6.612,3.939,8.1s5.768.225,8.722,0c12.6-1.266,20.032,12.914,23.662,24.506q6.584,21.129,13.224,42.2c1.969,6.387,5.289,13.9,12.211,14.715,6.387.788,11.817-5.261,12.773-11.254a38.205,38.205,0,0,0-1.688-14.94,11.62,11.62,0,0,1-11.085,6.5Z" transform="translate(-183.544 -323.361)"/>
        <path id="Path_21" data-name="Path 21" d="M209.492,389.9c-1.435-8.581-8.441-15.249-12.239-23.127a46.282,46.282,0,0,1-4.164-16.881c0,3.151-.281,6.3-.31,9.481,0,9.228.394,18.738,4.473,27.122,3.123,6.387,8.272,12.014,10.86,18.513a42.373,42.373,0,0,0,1.379-15.109Z" transform="translate(-192.78 -307.997)"/>
        <path id="Path_22" data-name="Path 22" d="M324.294,357.03c-5.121,24.534-13.111,49.518-10.635,74.108,1.6-18.147,6.893-36.407,10.635-54.413A143.489,143.489,0,0,0,327.558,335a172.039,172.039,0,0,1-3.264,22.03Z" transform="translate(25.593 -335)"/>
      </g>
      <g id="Group_115" data-name="Group 115" transform="translate(842.301 345.108)" opacity="0.8">
        <line id="Line_12" data-name="Line 12" x2="1758.606" transform="translate(86.262 472.19)" fill="none" stroke="#3f3d56" stroke-miterlimit="10" stroke-width="3"/>
        <path id="Path_23" data-name="Path 23" d="M466.46,492.444s84.1,11.676,40.542-78.553S625.17,340.74,625.17,340.74" transform="translate(-223.965 -20.282)" fill="none" stroke="#3f3d56" stroke-miterlimit="10" stroke-width="3"/>
        <path id="Path_24" data-name="Path 24" d="M665.53,394.146s84.1-11.648,40.542,78.581S824.24,545.878,824.24,545.878" transform="translate(137.049 78.015)" fill="none" stroke="#3f3d56" stroke-miterlimit="10" stroke-width="3"/>
        <path id="Path_25" data-name="Path 25" d="M1054.46,394.146s-84.124-11.648-40.542,78.581S895.75,545.878,895.75,545.878" transform="translate(554.553 78.015)" fill="none" stroke="#3f3d56" stroke-miterlimit="10" stroke-width="3"/>
        <line id="Line_13" data-name="Line 13" x1="464.031" transform="translate(986.272 623.865)" fill="none" stroke="#3f3d56" stroke-miterlimit="10" stroke-width="3"/>
        <circle id="Ellipse_8" data-name="Ellipse 8" cx="51.346" cy="51.346" r="51.346" transform="translate(34.916 420.843)" fill="#30d780"/>
        <circle id="Ellipse_9" data-name="Ellipse 9" cx="51.346" cy="51.346" r="51.346" transform="translate(350.731 268.38)" fill="#3acc6c"/>
        <circle id="Ellipse_10" data-name="Ellipse 10" cx="51.346" cy="51.346" r="51.346" transform="translate(350.731 420.843)" fill="#30d780"/>
        <circle id="Ellipse_11" data-name="Ellipse 11" cx="51.346" cy="51.346" r="51.346" transform="translate(554.541 420.843)" fill="#30d780"/>
        <circle id="Ellipse_12" data-name="Ellipse 12" cx="51.346" cy="51.346" r="51.346" transform="translate(910.786 571.76)" fill="#ff6584"/>
        <circle id="Ellipse_13" data-name="Ellipse 13" cx="51.346" cy="51.346" r="51.346" transform="translate(1179.982 571.76)" fill="#ff6584"/>
        <circle id="Ellipse_14" data-name="Ellipse 14" cx="51.346" cy="51.346" r="51.346" transform="translate(1165.943 420.843)" fill="#30d780"/>
        <circle id="Ellipse_15" data-name="Ellipse 15" cx="51.346" cy="51.346" r="51.346" transform="translate(1780.524 420.843)" fill="#30d780"/>
        <circle id="Ellipse_16" data-name="Ellipse 16" cx="51.346" cy="51.346" r="51.346" transform="translate(1529.109 420.843)" fill="#30d780"/>
        <rect id="Rectangle_7" data-name="Rectangle 7" width="172.271" height="118.73" fill="#30d780"/>
        <rect id="Rectangle_8" data-name="Rectangle 8" width="172.271" height="118.73" transform="translate(316.575)" fill="#3acc6c"/>
        <rect id="Rectangle_9" data-name="Rectangle 9" width="172.271" height="118.73" transform="translate(875.28)" fill="#ff6584"/>
      </g>
      <g id="Group_116" data-name="Group 116" transform="translate(0.003 817.806)" opacity="0.1">
        <path id="Path_26" data-name="Path 26" d="M323.831,418.468S113.465,330.011,85.893,489.621c0,0-14.377,24.871,5.627,45.41,0,0,4.3-11.029,24.618.366a104.584,104.584,0,0,0,22.958,9.341,51.657,51.657,0,0,0,32.693-1.744h0s69.184-3.742,127.367-94.252c0,0,24.956-15.418,26.194-21.214l-41.7,2.814s3.207,30.527-14.068,48.842c0,0,15.305-47.379,7.962-48.7-1.491-.281-22.03,2.42-22.03,2.42s5.318,53.091-22.508,80.551c0,0,25.828-53.991,14.6-79.594l-30.78,5.936s8.44,55.848-22,88.316c0,0,25.04-57.4,15.362-86.543l-29.457,9.9s7.09,54.61-18.372,81.591c0,0,22.227-69.24,11.76-78.778,0,0-26.5,10.748-32.158,16.881,0,0,4.192,39.389-11.986,53.6,0,0,9.932-47.83,5.008-49.8,0,0-30.78,23.183-40.177,43.187,0,0,11.7-30.555,36.322-47.83,0,0-20.679-3.489-36.575,5.149,0,0,10.635-20.285,44.031-10.663,0,0,24.731-17.134,29.682-16.881,0,0-31.6-14.068-54.413-12.323,0,0,24.477-14.068,62.122,9.425l29.4-10.607s-40.8-20.9-61.222-20.82c0,0,27.178-10.523,68.846,18.738l30.1-6.133s-33.762-20.679-56.523-25.49c0,0,27.291-4.333,65.217,24.055l20.567-1.716s-24.9-14.687-32.44-18.26-7.2-5.88-7.2-5.88a98.162,98.162,0,0,1,48.223,23.015S323.662,421.084,323.831,418.468Z" transform="translate(-80.893 -394.021)" fill="#30d780"/>
      </g>
      <g id="Group_117" data-name="Group 117" transform="translate(30.83 569.615)" opacity="0.1">
        <path id="Path_27" data-name="Path 27" d="M296.2,419.876s-74.5-172.383-181.837-93.324c0,0-22.677,6.584-22.508,30.1,0,0,8.834-4.108,14.433,14.264a84.688,84.688,0,0,0,8.441,18.6,42.2,42.2,0,0,0,20.4,17.584h0s43.243,37.195,129.421,16.572c0,0,23.633,5.036,27.657,2.335l-26.334-22.142s-15.5,19.976-36.266,20.932c0,0,36.1-19.413,32.5-24.393-.732-1.013-14.49-11.085-14.49-11.085s-27.066,34.55-59.084,35.084c0,0,46.113-17.387,54.019-38.967l-21.664-14.067s-27.319,38.01-63.895,39.98c0,0,47.576-19.835,58.436-42.681l-23.155-10.888s-26.9,36.575-57.311,37.954c0,0,52.669-28.473,51.853-40.092,0,0-21.861-8.722-28.81-8.215,0,0-19.891,25.743-37.645,25.012,0,0,33.171-22.761,31.371-26.728,0,0-31.511-3.77-48.477,2.814,0,0,24.365-11.479,48.814-7.709,0,0-10.3-13.871-24.618-17.725,0,0,17.894-5.993,32.243,18.71,0,0,24.421,3.939,27.291,6.865,0,0-10.719-26.419-25.322-38.32,0,0,22.508,5.627,31.511,40.993l23.521,10.438s-12.323-35.675-24.534-47.239c0,0,22.142,9.228,30.245,50.362l21.383,13.477s-8.272-31.511-19.047-47.351c0,0,18.682,13,25.012,51.459l13.223,10.691s-6.443-22.9-8.891-29.317-.928-7.6-.928-7.6a80.606,80.606,0,0,1,15.446,41.3S294.591,421.311,296.2,419.876Z" transform="translate(-91.85 -305.806)" fill="#30d780"/>
      </g>
    </g>
  </g>
</svg>
